<mxfile host="app.diagrams.net" agent="Mozilla/5.0 (Windows NT 10.0; Win64; x64) AppleWebKit/537.36 (KHTML, like Gecko) Chrome/138.0.0.0 Safari/537.36 Edg/138.0.0.0" version="28.0.7">
  <diagram name="第 1 页" id="PkaUODR4lvgDaA0R4lku">
    <mxGraphModel dx="776" dy="1138" grid="1" gridSize="10" guides="1" tooltips="1" connect="1" arrows="1" fold="1" page="1" pageScale="1" pageWidth="5000" pageHeight="5000" math="0" shadow="0">
      <root>
        <mxCell id="0" />
        <mxCell id="1" parent="0" />
        <mxCell id="fhLoJ_5DN70ywwl7f48_-10" style="edgeStyle=orthogonalEdgeStyle;rounded=0;orthogonalLoop=1;jettySize=auto;html=1;entryX=0.5;entryY=0;entryDx=0;entryDy=0;fontSize=16;" edge="1" parent="1" source="fhLoJ_5DN70ywwl7f48_-1" target="fhLoJ_5DN70ywwl7f48_-2">
          <mxGeometry relative="1" as="geometry" />
        </mxCell>
        <mxCell id="fhLoJ_5DN70ywwl7f48_-1" value="多源战场数据输入" style="rounded=0;whiteSpace=wrap;html=1;fontSize=16;" vertex="1" parent="1">
          <mxGeometry x="280" y="40" width="120" height="40" as="geometry" />
        </mxCell>
        <mxCell id="fhLoJ_5DN70ywwl7f48_-11" style="edgeStyle=orthogonalEdgeStyle;rounded=0;orthogonalLoop=1;jettySize=auto;html=1;fontSize=16;" edge="1" parent="1" source="fhLoJ_5DN70ywwl7f48_-2" target="fhLoJ_5DN70ywwl7f48_-3">
          <mxGeometry relative="1" as="geometry" />
        </mxCell>
        <mxCell id="fhLoJ_5DN70ywwl7f48_-2" value="大模型战略认知层" style="rounded=0;whiteSpace=wrap;html=1;fontSize=16;" vertex="1" parent="1">
          <mxGeometry x="280" y="160" width="120" height="40" as="geometry" />
        </mxCell>
        <mxCell id="fhLoJ_5DN70ywwl7f48_-5" style="edgeStyle=orthogonalEdgeStyle;rounded=0;orthogonalLoop=1;jettySize=auto;html=1;entryX=0.5;entryY=0;entryDx=0;entryDy=0;fontSize=16;" edge="1" parent="1" source="fhLoJ_5DN70ywwl7f48_-3" target="fhLoJ_5DN70ywwl7f48_-4">
          <mxGeometry relative="1" as="geometry" />
        </mxCell>
        <mxCell id="fhLoJ_5DN70ywwl7f48_-3" value="小模型战术执行层" style="rounded=0;whiteSpace=wrap;html=1;fontSize=16;" vertex="1" parent="1">
          <mxGeometry x="280" y="280" width="120" height="40" as="geometry" />
        </mxCell>
        <mxCell id="fhLoJ_5DN70ywwl7f48_-6" style="edgeStyle=orthogonalEdgeStyle;rounded=0;orthogonalLoop=1;jettySize=auto;html=1;entryX=0;entryY=0.5;entryDx=0;entryDy=0;fontSize=16;" edge="1" parent="1" source="fhLoJ_5DN70ywwl7f48_-4" target="fhLoJ_5DN70ywwl7f48_-3">
          <mxGeometry relative="1" as="geometry">
            <Array as="points">
              <mxPoint x="200" y="420" />
              <mxPoint x="200" y="300" />
            </Array>
          </mxGeometry>
        </mxCell>
        <mxCell id="fhLoJ_5DN70ywwl7f48_-7" value="反馈优化" style="edgeLabel;html=1;align=center;verticalAlign=middle;resizable=0;points=[];fontSize=16;" vertex="1" connectable="0" parent="fhLoJ_5DN70ywwl7f48_-6">
          <mxGeometry x="0.0429" y="-3" relative="1" as="geometry">
            <mxPoint as="offset" />
          </mxGeometry>
        </mxCell>
        <mxCell id="fhLoJ_5DN70ywwl7f48_-8" style="edgeStyle=orthogonalEdgeStyle;rounded=0;orthogonalLoop=1;jettySize=auto;html=1;entryX=1;entryY=0.5;entryDx=0;entryDy=0;fontSize=16;" edge="1" parent="1" source="fhLoJ_5DN70ywwl7f48_-4" target="fhLoJ_5DN70ywwl7f48_-2">
          <mxGeometry relative="1" as="geometry">
            <Array as="points">
              <mxPoint x="480" y="420" />
              <mxPoint x="480" y="180" />
            </Array>
          </mxGeometry>
        </mxCell>
        <mxCell id="fhLoJ_5DN70ywwl7f48_-9" value="反馈优化" style="edgeLabel;html=1;align=center;verticalAlign=middle;resizable=0;points=[];fontSize=16;" vertex="1" connectable="0" parent="fhLoJ_5DN70ywwl7f48_-8">
          <mxGeometry x="-0.015" y="3" relative="1" as="geometry">
            <mxPoint as="offset" />
          </mxGeometry>
        </mxCell>
        <mxCell id="fhLoJ_5DN70ywwl7f48_-4" value="动态对抗验证" style="rounded=0;whiteSpace=wrap;html=1;fontSize=16;" vertex="1" parent="1">
          <mxGeometry x="280" y="400" width="120" height="40" as="geometry" />
        </mxCell>
      </root>
    </mxGraphModel>
  </diagram>
</mxfile>
